<svg width="69" height="50" viewBox="0 0 69 50" fill="none" xmlns="http://www.w3.org/2000/svg">
<path d="M42.9025 18.8517V16.2969H40.3477C40.8524 16.6521 41.326 17.0446 41.7621 17.4808C42.1796 17.9045 42.566 18.3656 42.9025 18.8517Z" fill="white"/>
<path d="M26.0654 30.6094V33.133H28.5766C28.0968 32.7965 27.6482 32.4227 27.2307 32.0114C26.8007 31.5814 26.4144 31.1141 26.0654 30.6156V30.6094Z" fill="white"/>
<path d="M34.4776 18.565V16.2969H26.0654V20.5715L28.9505 22.0109C29.9537 19.9733 32.0474 18.565 34.4713 18.565H34.4776Z" fill="white"/>
<path d="M59.5703 16.072C59.5703 16.1966 59.67 16.2963 59.7946 16.2963H62.4616V33.1331H59.7946C59.67 33.1331 59.5703 33.2328 59.5703 33.3574C59.5703 33.482 59.67 33.5817 59.7946 33.5817H62.9102V15.8477H59.7946C59.67 15.8477 59.5703 15.9474 59.5703 16.072Z" fill="white"/>
<path d="M8.4246 33.1331H5.75764V16.2963H8.4246C8.54923 16.2963 8.64893 16.1966 8.64893 16.072C8.64893 15.9474 8.54923 15.8477 8.4246 15.8477H5.309V24.6835H2.29932C2.28686 24.0604 1.7759 23.5557 1.15277 23.5557C0.529653 23.5557 0 24.0729 0 24.7084C0 25.344 0.517191 25.8612 1.15277 25.8612C1.71982 25.8612 2.18716 25.45 2.28062 24.9078H5.309V33.5817H8.4246C8.54923 33.5817 8.64893 33.482 8.64893 33.3574C8.64893 33.2328 8.54923 33.1331 8.4246 33.1331Z" fill="white"/>
<path d="M47.5386 25.8747C47.1398 25.7313 46.8469 25.3762 46.7908 24.94C46.7908 24.8901 46.7784 24.8465 46.7784 24.7967C46.7784 24.6907 46.7971 24.591 46.822 24.4913C46.9217 24.1237 47.1959 23.8371 47.551 23.7124C47.6196 23.6875 47.6944 23.6688 47.7691 23.6564C47.227 16.7958 41.4818 11.3809 34.4842 11.3809C27.4865 11.3809 21.7413 16.7958 21.1992 23.6501C21.274 23.6564 21.3488 23.675 21.4173 23.6937C21.785 23.8121 22.0716 24.105 22.1713 24.4789C22.1962 24.5786 22.2149 24.6783 22.2149 24.7842C22.2149 24.8341 22.2087 24.8839 22.2024 24.9275C22.1464 25.3699 21.841 25.7314 21.4235 25.8684C21.355 25.8934 21.2802 25.9058 21.2054 25.9183C21.8223 32.6979 27.5364 38.0318 34.4779 38.0318C41.4195 38.0318 47.1335 32.6978 47.7504 25.9121C47.6757 25.8996 47.6009 25.8809 47.5323 25.856L47.5386 25.8747ZM25.2682 20.1731L25.6234 20.3476V15.8486H34.4779V14.4466C35.9236 14.4466 37.2945 14.7457 38.5469 15.2816C38.927 15.4436 39.2884 15.6368 39.6436 15.8424H43.3574V19.5438C44.2111 21.0019 44.7096 22.6843 44.7532 24.4851H39.2199L34.4904 19.7556L29.7048 24.5412L26.072 24.5163H25.6234L24.2151 24.5038C24.2587 22.9709 24.6264 21.463 25.2682 20.1669V20.1731ZM35.6993 24.7219C35.6993 25.3949 35.1571 25.937 34.4842 25.937C33.8112 25.937 33.2691 25.3949 33.2691 24.7219C33.2691 24.0489 33.8112 23.5068 34.4842 23.5068C35.1571 23.5068 35.6993 24.0489 35.6993 24.7219ZM36.7835 37.6205L36.285 34.8414C37.5001 34.6233 38.6404 34.1871 39.6748 33.5827H34.4779V35.0034C32.5774 35.0034 30.7953 34.4862 29.2686 33.5827H25.6172V29.9063C25.3679 29.4825 25.1373 29.0464 24.9504 28.5852L25.6172 28.3173V24.9338H26.0658V28.1366L28.7701 27.0524C28.5022 26.3981 28.3464 25.6815 28.3215 24.94H29.7484L34.4779 29.6695L39.2074 24.94H40.6157C40.5596 26.5663 39.8804 28.0307 38.8024 29.1024C37.93 29.9623 36.8084 30.5668 35.5497 30.7849C35.2008 30.8472 34.8394 30.8846 34.4655 30.8846V33.134H40.3602C40.84 32.7975 41.2949 32.4237 41.7124 32.0124L42.834 33.134H42.8901V24.94H43.3387V33.5827H43.2826L43.7126 34.0126C41.8619 35.8571 39.4567 37.1407 36.7773 37.6205H36.7835Z" fill="white"/>
<path d="M67.7267 23.5566C67.0974 23.5566 66.5926 24.0614 66.5802 24.6845H63.3524C63.2901 24.6845 63.2402 24.7343 63.2402 24.7967C63.2402 24.859 63.2901 24.9088 63.3524 24.9088H66.5989C66.6923 25.4509 67.1597 25.8622 67.7267 25.8622C68.3623 25.8622 68.8795 25.345 68.8795 24.7094C68.8795 24.0738 68.3623 23.5566 67.7267 23.5566Z" fill="white"/>
<path d="M34.1719 24.7159C34.1719 24.8841 34.309 25.0274 34.4834 25.0274C34.6579 25.0274 34.795 24.8903 34.795 24.7159C34.795 24.5414 34.6579 24.4043 34.4834 24.4043C34.309 24.4043 34.1719 24.5414 34.1719 24.7159Z" fill="white"/>
<path d="M34.0856 0.226562C22.751 0.226562 12.9617 7.90965 10.2885 18.9077C10.2325 19.1508 10.3758 19.3876 10.6188 19.4499C10.8618 19.5122 11.0986 19.3626 11.1609 19.1196C13.7406 8.52654 23.1685 1.12386 34.0856 1.12386C47.0216 1.12386 57.5523 11.5861 57.6707 24.4909H51.7261C51.6514 18.4965 48.4984 13.2311 43.7813 10.1965L46.3673 6.2833L44.4605 5.18038L42.398 9.39268C41.5381 8.94403 40.6346 8.56393 39.6999 8.27106L41.1891 3.82197L39.0643 3.2487L38.1608 7.8598C37.2199 7.65417 36.254 7.52332 35.2633 7.4797L35.5499 2.78136H33.344L33.6681 7.4797C32.6773 7.52332 31.7115 7.65417 30.7768 7.8598L29.8359 3.23624L27.711 3.80951L29.2439 8.27729C28.3092 8.57639 27.4119 8.9565 26.552 9.39891L24.4396 5.16169L22.5329 6.26461L25.1812 10.1965C24.3586 10.7262 23.586 11.3119 22.8694 11.9662L19.7226 8.40815L18.1648 9.96595L21.7478 13.0878C21.0935 13.8044 20.5015 14.5771 19.9719 15.3996L16.0026 12.77L14.8996 14.6768L19.1743 16.7704C18.7256 17.6303 18.3517 18.5276 18.0526 19.4561L13.5412 17.9481L12.968 20.073L17.6351 20.989C17.3859 22.1231 17.2488 23.2945 17.2301 24.4972H12.9991C12.8496 23.3693 11.8962 22.4969 10.731 22.4969C9.45979 22.4969 8.43164 23.5251 8.43164 24.7962C8.43164 26.0674 9.45979 27.0956 10.731 27.0956C12.0021 27.0956 12.9368 26.1422 13.0178 24.9396H17.2301C17.2426 26.111 17.3734 27.2513 17.6102 28.348L12.9493 29.2952L13.5163 31.42L18.0153 29.8809C18.3081 30.8156 18.682 31.7129 19.1244 32.5728L14.8623 34.6977L15.9652 36.6044L19.9095 33.9499C20.433 34.7724 21.0187 35.5513 21.673 36.2679L18.115 39.4209L19.6728 40.9787L22.7946 37.3958C23.5112 38.0563 24.2776 38.6482 25.1001 39.1841L22.483 43.141L24.3898 44.2439L26.471 39.988C27.3247 40.4366 28.2282 40.8229 29.1567 41.122L27.6549 45.6023L29.786 46.1755L30.6895 41.5458C31.6305 41.7576 32.5901 41.8947 33.5808 41.9446L33.2942 46.6491H35.5L35.176 41.9508C36.1668 41.9134 37.1326 41.7888 38.0735 41.5894L39.0082 46.1942L41.1331 45.621L39.6126 41.1843C40.5536 40.8915 41.4509 40.5176 42.317 40.0752L44.4107 44.275L46.3174 43.1721L43.7003 39.2838C44.5291 38.7604 45.308 38.1684 46.0308 37.5142L49.1339 41.0223L50.6917 39.4645L47.1649 36.3925C47.8254 35.676 48.4236 34.9033 48.9532 34.0808L52.854 36.6605L53.9569 34.7537L49.7633 32.7037C50.2119 31.8438 50.5983 30.9402 50.8974 30.0055L55.3215 31.4823L55.8948 29.3513L51.3211 28.454C51.5766 27.3199 51.7137 26.136 51.7324 24.9271H57.6769C57.5585 37.832 47.0216 48.2942 34.0918 48.2942C23.1934 48.2942 13.7718 40.9102 11.1796 30.342C11.1235 30.099 10.8805 29.9557 10.6375 30.0118C10.3945 30.0679 10.2512 30.3109 10.3072 30.5539C12.9991 41.5271 22.7759 49.1915 34.0918 49.1915C47.5948 49.1915 58.5805 38.2058 58.5805 24.7028C58.5805 11.1997 47.5886 0.226562 34.0856 0.226562ZM50.4363 28.292L50.0499 29.7251C49.7633 30.6287 49.3957 31.4886 48.9595 32.3173L48.274 33.5013C47.707 34.3923 47.0527 35.2273 46.3237 35.9937L45.7442 36.5732C42.8093 39.3648 38.84 41.0784 34.4719 41.0784C25.5114 41.0784 18.2333 33.8751 18.115 24.9396H19.3176H19.4983H19.9345C19.9345 24.8897 19.922 24.8461 19.922 24.7962C19.922 24.6903 19.9407 24.5906 19.9656 24.4909H18.115C18.2333 15.5554 25.5114 8.35207 34.4719 8.35207C43.4324 8.35207 50.7104 15.5554 50.8288 24.4909H49.028C49.0529 24.5906 49.0716 24.6903 49.0716 24.7962C49.0716 24.8461 49.0654 24.8959 49.0592 24.9396H50.8288C50.8164 26.0923 50.6793 27.2077 50.4363 28.292Z" fill="white"/>
<path d="M25.7289 36.9424C25.6541 37.0483 25.6853 37.1854 25.785 37.254C25.8224 37.2851 25.866 37.2914 25.9096 37.2914C25.9782 37.2914 26.0467 37.2602 26.0903 37.1979C26.1651 37.092 26.1339 36.9549 26.0342 36.8863C25.9345 36.8178 25.7912 36.8427 25.7227 36.9424H25.7289Z" fill="white"/>
<path d="M29.1939 38.5374C29.0818 38.4938 28.9509 38.5561 28.9073 38.6745C28.8637 38.7866 28.9198 38.9175 29.0382 38.9611C29.0631 38.9673 29.0942 38.9736 29.1192 38.9736C29.2064 38.9736 29.2936 38.9175 29.331 38.8302C29.3746 38.7119 29.3123 38.581 29.1939 38.5374Z" fill="white"/>
<path d="M23.0561 34.512C22.9627 34.593 22.9502 34.7364 23.0374 34.8236C23.0811 34.8735 23.1434 34.8984 23.2057 34.8984C23.2618 34.8984 23.3116 34.8797 23.3552 34.8423C23.4487 34.7613 23.4612 34.618 23.3802 34.5307C23.2929 34.4373 23.1558 34.4248 23.0624 34.512H23.0561Z" fill="white"/>
<path d="M19.8039 28.1126C19.6855 28.1375 19.6045 28.2621 19.6356 28.3805C19.6605 28.4864 19.754 28.5487 19.8537 28.5487C19.8724 28.5487 19.8911 28.5487 19.9098 28.5487C20.0282 28.5176 20.103 28.3992 20.0718 28.2746C20.0469 28.1562 19.9222 28.0814 19.8039 28.1126Z" fill="white"/>
<path d="M20.0526 21.2011C20.0775 21.0827 20.009 20.9581 19.8844 20.927C19.766 20.902 19.6414 20.9706 19.6164 21.0952C19.5853 21.2136 19.6601 21.3382 19.7847 21.3631C19.8034 21.3631 19.8158 21.3694 19.8345 21.3694C19.9405 21.3694 20.0277 21.2946 20.0526 21.2011Z" fill="white"/>
<path d="M32.6586 39.384C32.534 39.3715 32.4281 39.4588 32.4094 39.5834C32.3969 39.7018 32.4842 39.814 32.6088 39.8326H32.6337C32.7459 39.8326 32.8393 39.7454 32.858 39.6332C32.8705 39.5086 32.7833 39.4027 32.6586 39.384Z" fill="white"/>
<path d="M21.0372 31.5078C20.925 31.5639 20.8877 31.701 20.9437 31.8131C20.9811 31.8879 21.0621 31.9315 21.1431 31.9315C21.1805 31.9315 21.2179 31.9253 21.2491 31.9066C21.3612 31.8505 21.3986 31.7134 21.3425 31.6075C21.2865 31.4954 21.1494 31.458 21.0434 31.514L21.0372 31.5078Z" fill="white"/>
<path d="M45.4884 34.505C45.4074 34.5984 45.4136 34.7355 45.5133 34.8228C45.5507 34.8602 45.6068 34.8788 45.6629 34.8788C45.719 34.8788 45.7813 34.8539 45.8311 34.8041C45.9121 34.7168 45.8997 34.5735 45.8124 34.4925C45.719 34.4053 45.5819 34.4177 45.4947 34.5112L45.4884 34.505Z" fill="white"/>
<path d="M47.8192 31.4828C47.707 31.4267 47.5699 31.4641 47.5138 31.5763C47.4577 31.6822 47.5014 31.8255 47.6073 31.8754C47.6447 31.8941 47.6758 31.9003 47.7132 31.9003C47.7942 31.9003 47.8752 31.8567 47.9126 31.7819C47.9687 31.676 47.9251 31.5389 47.8192 31.4828Z" fill="white"/>
<path d="M48.7785 28.2417C48.7474 28.3601 48.8222 28.4785 48.9468 28.5097C48.9655 28.5097 48.9842 28.5097 49.0029 28.5097C49.1026 28.5097 49.1898 28.4411 49.221 28.3414C49.2521 28.223 49.1773 28.0984 49.0527 28.0735C48.9343 28.0423 48.8159 28.1171 48.7848 28.2417H48.7785Z" fill="white"/>
<path d="M39.6807 38.5304C39.5623 38.574 39.5063 38.7048 39.5499 38.817C39.581 38.9042 39.6683 38.9665 39.7555 38.9665C39.7804 38.9665 39.8116 38.9665 39.8365 38.9478C39.9549 38.9105 40.011 38.7796 39.9674 38.6612C39.9238 38.5428 39.7929 38.4867 39.6807 38.5304Z" fill="white"/>
<path d="M36.2162 39.3761C36.0916 39.3948 36.0043 39.507 36.0168 39.6254C36.0293 39.7375 36.129 39.8248 36.2411 39.8248H36.2661C36.3845 39.8061 36.4779 39.6939 36.4592 39.5755C36.4468 39.4571 36.3346 39.3637 36.21 39.3761H36.2162Z" fill="white"/>
<path d="M42.8277 36.874C42.7218 36.9425 42.6968 37.0796 42.7716 37.1856C42.8152 37.2479 42.8838 37.2853 42.9523 37.2853C42.9959 37.2853 43.0396 37.2728 43.0832 37.2479C43.1829 37.1731 43.2078 37.036 43.1393 36.9363C43.0645 36.8304 42.9274 36.8117 42.8277 36.8802V36.874Z" fill="white"/>
<path d="M29.0567 10.9057C29.0567 10.9057 29.1127 10.9057 29.1377 10.8932C29.2498 10.8496 29.3059 10.7188 29.2623 10.6004C29.2249 10.4882 29.0941 10.4321 28.9757 10.4757C28.8573 10.5131 28.8012 10.644 28.8448 10.7624C28.8822 10.8496 28.9632 10.9057 29.0567 10.9057Z" fill="white"/>
<path d="M42.9022 12.5464C42.9707 12.5464 43.0455 12.509 43.0829 12.4467C43.1576 12.347 43.1265 12.2037 43.0268 12.1352C42.9271 12.0604 42.79 12.0915 42.7152 12.1912C42.6405 12.2972 42.6716 12.428 42.7713 12.5028C42.8087 12.5277 42.8523 12.5464 42.8959 12.5464H42.9022Z" fill="white"/>
<path d="M39.6182 10.8642C39.6182 10.8642 39.6743 10.8767 39.693 10.8767C39.7865 10.8767 39.8737 10.8206 39.9049 10.7271C39.9485 10.615 39.8924 10.4841 39.774 10.4405C39.6556 10.3969 39.5248 10.453 39.4874 10.5714C39.4438 10.6898 39.4999 10.8206 39.6182 10.8642Z" fill="white"/>
<path d="M45.6194 14.939C45.6754 14.939 45.7253 14.9203 45.7689 14.883C45.8624 14.7957 45.8686 14.6586 45.7876 14.5652C45.7066 14.4779 45.5633 14.4655 45.4761 14.5465C45.3826 14.6337 45.3701 14.7708 45.4574 14.8643C45.4947 14.9141 45.5633 14.939 45.6256 14.939H45.6194Z" fill="white"/>
<path d="M48.9777 21.2831C48.9777 21.2831 49.0151 21.2831 49.0338 21.2769C49.1522 21.252 49.227 21.1274 49.2021 21.009C49.1709 20.8906 49.0525 20.8158 48.9279 20.8407C48.8095 20.8719 48.7347 20.9903 48.7659 21.1149C48.7908 21.2208 48.8843 21.2831 48.984 21.2831H48.9777Z" fill="white"/>
<path d="M21.0114 17.9624C21.0426 17.9811 21.08 17.9874 21.1174 17.9874C21.1984 17.9874 21.2731 17.9437 21.3168 17.869C21.3728 17.7568 21.3355 17.6197 21.2233 17.5636C21.1174 17.5075 20.9741 17.5512 20.9242 17.6571C20.8681 17.7693 20.9055 17.9063 21.0177 17.9624H21.0114Z" fill="white"/>
<path d="M47.6877 17.9042C47.7251 17.9042 47.7625 17.898 47.7936 17.8793C47.9058 17.8232 47.9432 17.6861 47.8871 17.5802C47.831 17.468 47.6939 17.4306 47.588 17.4867C47.4758 17.5428 47.4384 17.6799 47.4945 17.792C47.5319 17.8668 47.6129 17.9104 47.6939 17.9104L47.6877 17.9042Z" fill="white"/>
<path d="M25.8604 12.602C25.904 12.602 25.9476 12.5896 25.985 12.5584C26.0909 12.4899 26.1159 12.3466 26.0411 12.2469C25.9663 12.1409 25.8292 12.1222 25.7295 12.1908C25.6298 12.2593 25.6049 12.4026 25.6734 12.5023C25.7108 12.5647 25.7856 12.602 25.8541 12.602H25.8604Z" fill="white"/>
<path d="M36.1542 10.0222C36.1542 10.0222 36.1729 10.0222 36.1791 10.0222C36.2912 10.0222 36.3847 9.93494 36.3972 9.82277C36.4159 9.69815 36.3286 9.58599 36.1978 9.57353C36.0794 9.56106 35.9672 9.64207 35.9485 9.77292C35.9361 9.89132 36.0171 10.0035 36.1479 10.0222H36.1542Z" fill="white"/>
<path d="M23.1622 15.0017C23.2245 15.0017 23.2868 14.9768 23.3304 14.9269C23.4114 14.8335 23.4052 14.6902 23.3117 14.6091C23.2182 14.5281 23.0749 14.5344 22.9939 14.6278C22.9129 14.7213 22.9191 14.8646 23.0126 14.9456C23.0562 14.983 23.1123 15.0017 23.1622 15.0017Z" fill="white"/>
<path d="M32.5657 10.0347H32.5906C32.709 10.0222 32.8025 9.91003 32.7838 9.7854C32.7714 9.66701 32.6592 9.57354 32.5346 9.59223C32.4099 9.6047 32.3227 9.71686 32.3352 9.84148C32.3476 9.95988 32.4473 10.0409 32.5595 10.0409L32.5657 10.0347Z" fill="white"/>
</svg>
