<svg width="53" height="54" viewBox="0 0 53 54" fill="none" xmlns="http://www.w3.org/2000/svg">
  <path
    d="M27.2983 32.3679C27.2983 31.9317 26.9431 31.5703 26.5007 31.5703C26.0583 31.5703 25.7031 31.9255 25.7031 32.3679C25.7031 32.8103 26.0583 33.1655 26.5007 33.1655C26.9431 33.1655 27.2983 32.8103 27.2983 32.3679Z"
    fill="white" />
  <path
    d="M26.5013 22.6962C28.5015 22.6962 30.1528 24.2042 30.3895 26.1421H33.985C33.7357 22.2164 30.4892 19.1133 26.5013 19.1133C22.5133 19.1133 19.2668 22.2227 19.0176 26.1421H22.613C22.8498 24.2042 24.501 22.6962 26.5013 22.6962ZM30.9067 21.5123C31.1186 21.5123 31.2868 21.6868 31.2868 21.8924C31.2868 22.098 31.1186 22.2725 30.9067 22.2725C30.6949 22.2725 30.5266 22.1043 30.5266 21.8924C30.5266 21.6805 30.7011 21.5123 30.9067 21.5123ZM29.9409 22.6713C30.0468 22.6713 30.1341 22.7585 30.1341 22.8645C30.1341 22.9704 30.0468 23.0576 29.9409 23.0576C29.835 23.0576 29.7477 22.9704 29.7477 22.8645C29.7477 22.7585 29.835 22.6713 29.9409 22.6713ZM26.5075 19.3999C27.3051 19.3999 27.9531 20.048 27.9531 20.8456C27.9531 21.6432 27.3051 22.2912 26.5075 22.2912C25.7099 22.2912 25.0619 21.6432 25.0619 20.8456C25.0619 20.048 25.7099 19.3999 26.5075 19.3999Z"
    fill="white" />
  <path
    d="M26.5006 23.1445C24.7559 23.1445 23.3103 24.4531 23.0859 26.1417H23.3103C23.5284 24.5777 24.8743 23.3689 26.4944 23.3689C28.1145 23.3689 29.4605 24.5777 29.6786 26.1417H29.9029C29.6848 24.4531 28.2392 23.1445 26.4882 23.1445H26.5006Z"
    fill="white" />
  <path
    d="M35.1818 2.0635C35.1818 2.0635 35.2316 2.07596 35.2565 2.07596C35.35 2.07596 35.4372 2.01988 35.4684 1.92641C35.5058 1.80802 35.4497 1.67716 35.3313 1.63978C35.2129 1.60239 35.0821 1.6647 35.0447 1.77686C35.0073 1.89526 35.0634 2.01988 35.1818 2.05727V2.0635Z"
    fill="white" />
  <path
    d="M41.101 5.0489C41.1384 5.07382 41.182 5.09251 41.2256 5.09251C41.3004 5.09251 41.3627 5.05513 41.4063 4.99281C41.4811 4.88688 41.4499 4.7498 41.3502 4.68125C41.2443 4.61271 41.1072 4.63763 41.0387 4.73733C40.9701 4.84326 41.0013 4.98035 41.101 5.0489Z"
    fill="white" />
  <path
    d="M52.5537 25.5304C52.5537 25.6488 52.6596 25.7423 52.778 25.7423H52.7843C52.9089 25.7361 53.0024 25.6301 53.0024 25.5117C52.9961 25.3871 52.8902 25.2874 52.7718 25.2999C52.6472 25.2999 52.5537 25.4058 52.5599 25.5304H52.5537Z"
    fill="white" />
  <path
    d="M37.2441 2.89152C37.2441 2.89152 37.3001 2.91021 37.3313 2.91021C37.4185 2.91021 37.4995 2.86036 37.5369 2.77936C37.5868 2.66097 37.5369 2.53011 37.4248 2.48026C37.3126 2.43041 37.1755 2.48026 37.1257 2.59242C37.0758 2.70458 37.1257 2.84167 37.2441 2.89152Z"
    fill="white" />
  <path
    d="M30.9069 0.962314H30.9443C31.0502 0.962314 31.1437 0.887539 31.1624 0.781609C31.1873 0.663215 31.1063 0.544822 30.9817 0.519898C30.8633 0.494973 30.7449 0.58221 30.7262 0.700603C30.7013 0.818996 30.7823 0.937389 30.9069 0.962314Z"
    fill="white" />
  <path
    d="M33.0689 1.42141C33.0689 1.42141 33.1063 1.43388 33.125 1.43388C33.2247 1.43388 33.3119 1.36533 33.3431 1.26563C33.3742 1.14724 33.3057 1.02262 33.1811 0.99146C33.0627 0.960304 32.938 1.03508 32.9069 1.15347C32.8757 1.27186 32.9443 1.39649 33.0689 1.42765V1.42141Z"
    fill="white" />
  <path
    d="M28.7138 0.681383H28.7325C28.8508 0.681383 28.9443 0.594146 28.9568 0.475753C28.963 0.351129 28.8758 0.245198 28.7511 0.232736C28.6328 0.226505 28.5206 0.313742 28.5081 0.432135C28.5019 0.556759 28.5891 0.66269 28.7138 0.681383Z"
    fill="white" />
  <path
    d="M52.3666 23.3262C52.3791 23.4384 52.4788 23.5256 52.591 23.5256C52.5972 23.5256 52.6097 23.5256 52.6159 23.5256C52.7343 23.5132 52.8278 23.401 52.8091 23.2764C52.7966 23.158 52.6844 23.0708 52.5598 23.0832C52.4414 23.0957 52.348 23.2141 52.3666 23.3325V23.3262Z"
    fill="white" />
  <path
    d="M47.4627 11.1443C47.5 11.2004 47.5686 11.2316 47.6434 11.2316C47.687 11.2316 47.7306 11.2191 47.7742 11.1879C47.8801 11.1132 47.8926 10.9761 47.8241 10.8764C47.7493 10.7704 47.6122 10.7517 47.5125 10.8265C47.4128 10.9013 47.3941 11.0446 47.4627 11.1381V11.1443Z"
    fill="white" />
  <path
    d="M46.2415 9.49763C46.2913 9.49763 46.3474 9.47894 46.391 9.44155C46.4783 9.36054 46.4907 9.21723 46.4097 9.12376C46.3287 9.03652 46.1854 9.02406 46.0982 9.10506C46.0047 9.18607 45.9922 9.32939 46.0732 9.42286C46.1169 9.47271 46.1792 9.4914 46.2415 9.4914V9.49763Z"
    fill="white" />
  <path
    d="M43.021 6.41366C43.0895 6.41366 43.1519 6.38874 43.1955 6.33266C43.2703 6.23296 43.2578 6.08964 43.1643 6.01487C43.0709 5.94009 42.9275 5.95255 42.8528 6.05225C42.778 6.14572 42.7904 6.28904 42.8901 6.36381C42.9275 6.39497 42.9774 6.41366 43.0272 6.41366H43.021Z"
    fill="white" />
  <path
    d="M44.6968 7.88926C44.7529 7.88926 44.8152 7.86434 44.8588 7.82072C44.946 7.73348 44.9398 7.59016 44.8526 7.50293C44.7653 7.41569 44.622 7.41569 44.541 7.50293C44.4538 7.59016 44.4538 7.73971 44.541 7.82072C44.5846 7.85811 44.6407 7.88303 44.6968 7.88303V7.88926Z"
    fill="white" />
  <path
    d="M39.2131 3.89133C39.2505 3.91003 39.2879 3.91626 39.3253 3.91626C39.4001 3.91626 39.4748 3.87264 39.5184 3.8041C39.5808 3.69817 39.5434 3.55485 39.4312 3.49877C39.3253 3.43646 39.1882 3.47384 39.1259 3.58601C39.0698 3.69194 39.101 3.82902 39.2131 3.89133Z"
    fill="white" />
  <path
    d="M11.7017 5.14149C11.7453 5.14149 11.789 5.12903 11.8263 5.1041C11.9323 5.03556 11.9572 4.89847 11.8824 4.79254C11.8139 4.68661 11.6768 4.66169 11.5709 4.73646C11.4649 4.80501 11.44 4.94209 11.5148 5.04802C11.5522 5.11033 11.6269 5.14772 11.6955 5.14772L11.7017 5.14149Z"
    fill="white" />
  <path
    d="M5.30904 11.3101C5.37758 11.3101 5.44612 11.2789 5.48974 11.2166C5.56451 11.1169 5.54583 10.9798 5.44613 10.9051C5.34643 10.8303 5.20311 10.849 5.13457 10.9487C5.05979 11.0546 5.07848 11.1917 5.17818 11.2603C5.2218 11.2914 5.26542 11.3039 5.31527 11.3039L5.30904 11.3101Z"
    fill="white" />
  <path
    d="M6.70438 9.57337C6.7667 9.57337 6.829 9.54845 6.87262 9.4986C6.95986 9.40513 6.9474 9.26181 6.85393 9.18081C6.76046 9.0998 6.61714 9.10603 6.53614 9.20573C6.45513 9.29297 6.46759 9.43629 6.56106 9.51729C6.59845 9.55468 6.65453 9.57337 6.71061 9.57337H6.70438Z"
    fill="white" />
  <path
    d="M13.5963 3.96574C13.6337 3.96574 13.6711 3.95951 13.7022 3.94081C13.8081 3.8785 13.8518 3.74141 13.7894 3.63548C13.7334 3.52955 13.59 3.48593 13.4841 3.54825C13.3782 3.60433 13.3346 3.74765 13.3969 3.85358C13.4343 3.92835 13.5153 3.96574 13.5963 3.96574Z"
    fill="white" />
  <path
    d="M8.24394 7.95725C8.30002 7.95725 8.3561 7.93233 8.39972 7.89494C8.48696 7.8077 8.48696 7.66438 8.39972 7.57715C8.31248 7.48991 8.16917 7.48991 8.08816 7.57715C8.00092 7.66438 7.99469 7.8077 8.08192 7.89494C8.12554 7.93856 8.18786 7.96348 8.24394 7.96348V7.95725Z"
    fill="white" />
  <path
    d="M21.9585 0.973894C21.9585 0.973894 21.9834 0.973894 21.9958 0.973894C22.1142 0.9552 22.1952 0.836807 22.1765 0.718414C22.1516 0.59379 22.0395 0.512784 21.9148 0.537709C21.7964 0.562634 21.7154 0.674795 21.7341 0.79942C21.7528 0.90535 21.8463 0.980125 21.9522 0.980125L21.9585 0.973894Z"
    fill="white" />
  <path
    d="M26.4021 0.587319C26.4021 0.587319 26.4394 0.587319 26.4519 0.587319C26.4706 0.587319 26.4893 0.587319 26.508 0.587319C26.6264 0.587319 26.7323 0.48762 26.7323 0.362996C26.7323 0.238371 26.6264 0.138672 26.508 0.138672C26.4893 0.138672 26.4706 0.138672 26.4519 0.138672C26.4394 0.138672 26.4208 0.138672 26.4021 0.138672C26.2774 0.138672 26.1777 0.244603 26.1777 0.362996C26.1777 0.481389 26.2774 0.587319 26.4021 0.587319Z"
    fill="white" />
  <path
    d="M24.1768 0.685288H24.1955C24.3139 0.672826 24.4136 0.566895 24.3949 0.436039C24.3886 0.317646 24.2765 0.217947 24.1519 0.23664C24.0335 0.242872 23.9338 0.355034 23.9525 0.479658C23.9587 0.598051 24.0584 0.685288 24.1768 0.685288Z"
    fill="white" />
  <path
    d="M15.5839 2.95469C15.615 2.95469 15.6462 2.95469 15.6773 2.93599C15.7895 2.87991 15.8394 2.75529 15.7895 2.63689C15.7334 2.52473 15.6026 2.47488 15.4904 2.53096C15.3782 2.58081 15.3284 2.71167 15.3845 2.82383C15.4219 2.90484 15.5029 2.95469 15.5839 2.95469Z"
    fill="white" />
  <path
    d="M17.653 2.11368C17.653 2.11368 17.7029 2.11368 17.7278 2.10122C17.8462 2.0576 17.9023 1.93297 17.8649 1.81458C17.8275 1.69619 17.6966 1.64011 17.5783 1.67749C17.4599 1.72111 17.4038 1.84574 17.4412 1.96413C17.4723 2.05137 17.5596 2.11368 17.653 2.11368Z"
    fill="white" />
  <path
    d="M19.7838 1.45341C19.7838 1.45341 19.8212 1.45341 19.8398 1.44718C19.9582 1.41602 20.033 1.2914 20.0019 1.173C19.9707 1.05461 19.8523 0.979835 19.7277 1.01099C19.6093 1.04215 19.5345 1.16677 19.5657 1.28516C19.5906 1.38486 19.6841 1.45341 19.7838 1.45341Z"
    fill="white" />
  <path
    d="M9.91408 6.48122C9.96393 6.48122 10.0138 6.46253 10.0574 6.42514C10.1571 6.35037 10.1696 6.21328 10.0948 6.11358C10.0138 6.02011 9.87669 6.00142 9.77699 6.08243C9.68353 6.1572 9.67106 6.30052 9.74584 6.39399C9.78945 6.45007 9.85177 6.48122 9.92031 6.48122H9.91408Z"
    fill="white" />
  <path
    d="M6.66067 43.9128C6.5672 43.9938 6.55474 44.1371 6.63575 44.2244C6.67937 44.2742 6.74167 44.2991 6.80398 44.2991C6.86006 44.2991 6.90992 44.2804 6.95354 44.2431C7.047 44.1558 7.05323 44.0187 6.97223 43.9253C6.89122 43.8318 6.74791 43.8193 6.66067 43.9066V43.9128Z"
    fill="white" />
  <path
    d="M46.098 43.8558C46.0107 43.9492 46.0232 44.0863 46.1167 44.1735C46.1603 44.2109 46.2164 44.2296 46.2662 44.2296C46.3285 44.2296 46.3908 44.2047 46.4345 44.1548C46.5155 44.0614 46.5092 43.9181 46.4095 43.8371C46.3161 43.7561 46.179 43.7623 46.098 43.862V43.8558Z"
    fill="white" />
  <path
    d="M47.4881 42.1362C47.4133 42.2359 47.432 42.3792 47.5317 42.4478C47.5691 42.4789 47.6189 42.4914 47.6688 42.4914C47.7373 42.4914 47.8059 42.4602 47.8495 42.4041C47.9243 42.3044 47.9056 42.1611 47.8059 42.0926C47.6999 42.0178 47.5629 42.0365 47.4943 42.1362H47.4881Z"
    fill="white" />
  <path
    d="M28.763 52.6355C28.6446 52.6479 28.5512 52.7538 28.5636 52.8785C28.5698 52.9906 28.6695 53.0779 28.7879 53.0779H28.8066C28.925 53.0654 29.0185 52.9595 29.0123 52.8349C28.9998 52.7102 28.8939 52.623 28.763 52.6292V52.6355Z"
    fill="white" />
  <path
    d="M26.5515 53.1791C26.6754 53.1791 26.7758 53.0787 26.7758 52.9548C26.7758 52.8309 26.6754 52.7305 26.5515 52.7305C26.4276 52.7305 26.3271 52.8309 26.3271 52.9548C26.3271 53.0787 26.4276 53.1791 26.5515 53.1791Z"
    fill="white" />
  <path
    d="M30.9565 52.3489C30.8381 52.3738 30.7508 52.486 30.7758 52.6106C30.7945 52.7166 30.8942 52.7976 31.0001 52.7976C31.0063 52.7976 31.025 52.7976 31.0375 52.7976C31.1559 52.7726 31.2369 52.6605 31.2182 52.5359C31.1933 52.4175 31.0811 52.3365 30.9565 52.3489Z"
    fill="white" />
  <path
    d="M39.2566 49.4076C39.1506 49.4637 39.107 49.6008 39.1693 49.713C39.213 49.7815 39.2877 49.8251 39.3687 49.8251C39.4061 49.8251 39.4435 49.8126 39.4809 49.8002C39.5868 49.7379 39.6242 49.6008 39.5681 49.4949C39.5058 49.3889 39.3687 49.3453 39.2628 49.4076H39.2566Z"
    fill="white" />
  <path
    d="M43.2257 46.9554C43.1446 46.8557 43.0076 46.8433 42.9079 46.9243C42.8144 46.999 42.8019 47.1361 42.8767 47.2358C42.9203 47.2919 42.9826 47.3168 43.0512 47.3168C43.101 47.3168 43.1509 47.3044 43.1945 47.267C43.2942 47.1922 43.3067 47.0489 43.2319 46.9554H43.2257Z"
    fill="white" />
  <path
    d="M35.2311 51.2346C35.1127 51.272 35.0504 51.4029 35.094 51.5213C35.1252 51.6085 35.2124 51.6708 35.3059 51.6708C35.3308 51.6708 35.3557 51.6708 35.3806 51.6584C35.4928 51.621 35.5551 51.4901 35.5177 51.3717C35.4803 51.2533 35.3495 51.191 35.2311 51.2346Z"
    fill="white" />
  <path
    d="M37.2814 50.4058C37.1693 50.4557 37.1194 50.5865 37.1755 50.6987C37.2129 50.7797 37.2939 50.8295 37.3749 50.8295C37.4061 50.8295 37.4372 50.8296 37.4684 50.8109C37.5805 50.7548 37.6304 50.6302 37.5805 50.518C37.5244 50.3996 37.3998 50.3497 37.2814 50.4058Z"
    fill="white" />
  <path
    d="M44.5654 45.458C44.4782 45.5453 44.4782 45.6886 44.5654 45.7696C44.609 45.8195 44.6714 45.8444 44.7274 45.8444C44.7835 45.8444 44.8396 45.8194 44.8832 45.7821C44.9705 45.6948 44.9705 45.5515 44.8832 45.4643C44.796 45.377 44.6527 45.3708 44.5654 45.4643V45.458Z"
    fill="white" />
  <path
    d="M33.1184 51.8895C33 51.9207 32.9314 52.0391 32.9626 52.1637C32.9875 52.2634 33.081 52.3319 33.1807 52.3319C33.1994 52.3319 33.2181 52.3319 33.2367 52.3319C33.3551 52.2946 33.4237 52.1762 33.3925 52.0578C33.3614 51.9394 33.243 51.8646 33.1184 51.8958V51.8895Z"
    fill="white" />
  <path
    d="M9.85782 47.0151C9.77681 47.1086 9.79551 47.2519 9.88897 47.3267C9.93259 47.3579 9.98244 47.3766 10.0323 47.3766C10.0946 47.3766 10.1631 47.3516 10.2068 47.2893C10.2815 47.1958 10.2628 47.0525 10.1694 46.9778C10.0697 46.903 9.93259 46.9154 9.85782 47.0151Z"
    fill="white" />
  <path
    d="M11.9518 48.3004C11.8459 48.2319 11.7088 48.263 11.6402 48.3627C11.5717 48.4624 11.6028 48.6057 11.7025 48.6743C11.7399 48.6992 11.7836 48.7117 11.8209 48.7117C11.8895 48.7117 11.9643 48.6805 12.0079 48.612C12.0764 48.5123 12.0453 48.3689 11.9456 48.3004H11.9518Z"
    fill="white" />
  <path
    d="M49.0337 40.23C48.9278 40.1614 48.7907 40.1988 48.7222 40.3047C48.6536 40.4107 48.691 40.5478 48.7969 40.6163C48.8343 40.6412 48.8717 40.6475 48.9153 40.6475C48.9901 40.6475 49.0649 40.6101 49.1085 40.5415C49.177 40.4356 49.1396 40.2923 49.0337 40.23Z"
    fill="white" />
  <path
    d="M24.3449 52.6429C24.2203 52.6366 24.1143 52.7301 24.1019 52.8485C24.0956 52.9731 24.1829 53.0791 24.3075 53.0915C24.4259 53.0978 24.5381 53.0105 24.5505 52.8859C24.5568 52.7675 24.4633 52.6553 24.3449 52.6429Z"
    fill="white" />
  <path
    d="M13.8394 49.4517C13.7335 49.3957 13.5964 49.433 13.5341 49.539C13.478 49.6449 13.5092 49.782 13.6213 49.8443C13.6525 49.863 13.6961 49.8692 13.7273 49.8692C13.802 49.8692 13.8768 49.8318 13.9267 49.7508C13.9827 49.6449 13.9453 49.5078 13.8394 49.4455V49.4517Z"
    fill="white" />
  <path
    d="M8.18739 45.5319C8.10016 45.6191 8.10639 45.7624 8.19363 45.8497C8.23725 45.8871 8.29332 45.912 8.34317 45.912C8.39925 45.912 8.46157 45.8871 8.50519 45.8372C8.59243 45.75 8.5862 45.6067 8.50519 45.5194C8.41795 45.4322 8.27463 45.4384 8.18739 45.5257V45.5319Z"
    fill="white" />
  <path
    d="M19.9838 51.9133C19.8654 51.8822 19.7346 51.957 19.7097 52.0753C19.6785 52.1937 19.747 52.3184 19.8654 52.3495C19.8904 52.3495 19.9028 52.3495 19.9215 52.3495C20.0212 52.3495 20.1147 52.281 20.1396 52.1813C20.1708 52.0629 20.1022 51.932 19.9776 51.9071L19.9838 51.9133Z"
    fill="white" />
  <path
    d="M22.1516 52.3699C22.0332 52.3512 21.9148 52.4322 21.8961 52.5568C21.8712 52.6752 21.9522 52.7936 22.0768 52.8185H22.1142C22.2201 52.8185 22.3136 52.7437 22.3323 52.6316C22.3572 52.5132 22.27 52.3948 22.1516 52.3699Z"
    fill="white" />
  <path
    d="M17.8708 51.2648C17.7524 51.2274 17.6215 51.2897 17.5841 51.4019C17.5467 51.5203 17.609 51.6511 17.7212 51.6885C17.7461 51.6947 17.771 51.701 17.796 51.701C17.8832 51.701 17.9767 51.6449 18.0078 51.5452C18.0452 51.4268 17.9829 51.2959 17.8708 51.2585V51.2648Z"
    fill="white" />
  <path
    d="M48.8901 13.0867C48.9275 13.0867 48.9711 13.0743 49.0085 13.0493C49.1144 12.9808 49.1456 12.8499 49.0833 12.7378C49.0147 12.6319 48.8776 12.6007 48.7717 12.6692C48.6658 12.7316 48.6346 12.8686 48.6969 12.9808C48.7405 13.0493 48.8153 13.0867 48.8901 13.0867Z"
    fill="white" />
  <path
    d="M15.8145 50.449C15.6961 50.3992 15.5653 50.449 15.5154 50.5612C15.4656 50.6733 15.5154 50.8104 15.6276 50.8603C15.6587 50.8727 15.6899 50.8852 15.721 50.8852C15.8083 50.8852 15.8893 50.8353 15.9267 50.7481C15.9765 50.6359 15.9267 50.4989 15.8145 50.449Z"
    fill="white" />
  <path
    d="M52.6227 29.7484C52.5043 29.736 52.3922 29.817 52.3735 29.9416C52.3548 30.0662 52.4483 30.1784 52.5666 30.1908C52.5729 30.1908 52.5853 30.1908 52.5916 30.1908C52.7037 30.1908 52.8034 30.1036 52.8159 29.9914C52.8284 29.8668 52.7411 29.7609 52.6165 29.7422L52.6227 29.7484Z"
    fill="white" />
  <path
    d="M51.6498 19.1632C51.6498 19.1632 51.6934 19.1632 51.7184 19.157C51.8368 19.1196 51.8991 18.995 51.8679 18.8766C51.8305 18.7582 51.7059 18.6896 51.5875 18.727C51.4691 18.7644 51.4006 18.889 51.438 19.0074C51.4691 19.1009 51.5564 19.1632 51.6498 19.1632Z"
    fill="white" />
  <path
    d="M0.218096 25.8487H0.224324C0.342717 25.8487 0.442417 25.7552 0.448648 25.6368C0.448648 25.5122 0.355181 25.4062 0.230557 25.4062C0.105932 25.4062 0 25.4935 0 25.6243C0 25.7427 0.0872408 25.8549 0.218096 25.8549V25.8487Z"
    fill="white" />
  <path
    d="M51.732 34.1162C51.6136 34.0789 51.489 34.1412 51.4516 34.2658C51.4142 34.3842 51.4828 34.5088 51.6012 34.5462C51.6261 34.5524 51.6448 34.5587 51.6697 34.5587C51.7632 34.5587 51.8504 34.4963 51.8878 34.3966C51.9252 34.2783 51.8567 34.1536 51.7383 34.1162H51.732Z"
    fill="white" />
  <path
    d="M0.38027 23.6178C0.38027 23.6178 0.398964 23.6178 0.405196 23.6178C0.517358 23.6178 0.617057 23.5306 0.62952 23.4184C0.641982 23.2938 0.554745 23.1816 0.430121 23.1692C0.311728 23.1567 0.199565 23.2439 0.180872 23.3623C0.168409 23.4869 0.255646 23.5991 0.38027 23.6116V23.6178Z"
    fill="white" />
  <path
    d="M1.02845 32.2218C1.00353 32.1034 0.885137 32.0224 0.766744 32.0536C0.648351 32.0785 0.567347 32.2031 0.598504 32.3215C0.623428 32.4275 0.716896 32.496 0.816595 32.496C0.835289 32.496 0.847752 32.496 0.866446 32.496C0.984839 32.4711 1.06584 32.3527 1.03469 32.2343L1.02845 32.2218Z"
    fill="white" />
  <path
    d="M0.647931 30.042C0.629237 29.9236 0.517079 29.8364 0.398686 29.8488C0.280293 29.8675 0.186821 29.9797 0.205515 30.0981C0.217977 30.2103 0.317676 30.2975 0.423606 30.2975C0.436069 30.2975 0.448533 30.2975 0.454764 30.2975C0.573157 30.285 0.666624 30.1729 0.647931 30.0482V30.042Z"
    fill="white" />
  <path
    d="M0.242649 28.0778C0.361042 28.0716 0.460739 27.9657 0.454508 27.8473C0.454508 27.7227 0.348575 27.623 0.223951 27.6292C0.0993267 27.6292 0.00585938 27.7351 0.00585938 27.8597C0.0120906 27.9781 0.111792 28.0778 0.236416 28.0778H0.242649Z"
    fill="white" />
  <path
    d="M2.94734 38.3607C2.83518 38.4168 2.79156 38.5476 2.84765 38.6598C2.88503 38.7346 2.96604 38.7782 3.04704 38.7782C3.08443 38.7782 3.12182 38.7782 3.15297 38.7533C3.26514 38.6972 3.30252 38.5601 3.25267 38.4542C3.19659 38.342 3.05951 38.2984 2.95357 38.3545L2.94734 38.3607Z"
    fill="white" />
  <path
    d="M41.1326 48.2439C41.0329 48.3124 41.0018 48.4495 41.0766 48.5555C41.1202 48.624 41.1887 48.6552 41.2573 48.6552C41.3009 48.6552 41.3445 48.6427 41.3819 48.6178C41.4878 48.543 41.5128 48.4059 41.4442 48.3062C41.3694 48.2003 41.2323 48.1754 41.1326 48.2501V48.2439Z"
    fill="white" />
  <path
    d="M2.87908 15.0927C2.91024 15.1114 2.94763 15.1177 2.97878 15.1177C3.05979 15.1177 3.14079 15.0741 3.17818 14.9993C3.23426 14.8871 3.18441 14.75 3.07848 14.7002C2.96632 14.6441 2.82923 14.6877 2.77315 14.7999C2.71707 14.912 2.76692 15.0491 2.87908 15.099V15.0927Z"
    fill="white" />
  <path
    d="M3.94453 13.1292C3.98192 13.1541 4.0193 13.1603 4.06292 13.1603C4.1377 13.1603 4.21247 13.1229 4.25609 13.0544C4.3184 12.9485 4.28725 12.8114 4.18132 12.7428C4.07539 12.6805 3.9383 12.7117 3.87598 12.8176C3.80744 12.9235 3.8386 13.0606 3.95076 13.1292H3.94453Z"
    fill="white" />
  <path
    d="M1.98788 17.1366C1.98788 17.1366 2.04396 17.1553 2.06889 17.1553C2.15612 17.1553 2.24336 17.0992 2.28075 17.0182C2.32436 16.8998 2.26829 16.769 2.15612 16.7253C2.03773 16.6755 1.90687 16.7316 1.86326 16.8437C1.81964 16.9621 1.86948 17.093 1.98788 17.1366Z"
    fill="white" />
  <path
    d="M52.2734 31.9496C52.155 31.9247 52.0304 32.0057 52.0055 32.1241C51.9806 32.2425 52.0616 32.3671 52.18 32.3858C52.1924 32.3858 52.2111 32.3858 52.2236 32.3858C52.3295 32.3858 52.423 32.311 52.4417 32.2113C52.4666 32.0929 52.3918 31.9683 52.2734 31.9434V31.9496Z"
    fill="white" />
  <path
    d="M0.728795 21.4136C0.728795 21.4136 0.759951 21.4136 0.772413 21.4136C0.878344 21.4136 0.971811 21.3451 0.990505 21.2392C1.01543 21.1208 0.940657 20.9961 0.822264 20.9774C0.703871 20.9525 0.579247 21.0273 0.554322 21.1457C0.529397 21.2641 0.610402 21.3887 0.728795 21.4074V21.4136Z"
    fill="white" />
  <path
    d="M52.2111 21.3179C52.2111 21.3179 52.2423 21.3179 52.2547 21.3179C52.3731 21.293 52.4541 21.1684 52.4292 21.0562C52.4043 20.9316 52.2797 20.8568 52.1613 20.8817C52.0429 20.9067 51.9619 21.0313 51.993 21.1434C52.018 21.2494 52.1114 21.3241 52.2111 21.3241V21.3179Z"
    fill="white" />
  <path
    d="M49.9875 15.0313C50.0186 15.0313 50.056 15.0251 50.0872 15.0064C50.1993 14.9503 50.243 14.8195 50.1869 14.7073C50.1308 14.5951 49.9999 14.5578 49.8878 14.6076C49.7756 14.6637 49.732 14.8008 49.7881 14.9067C49.8317 14.9877 49.9065 15.0313 49.9875 15.0313Z"
    fill="white" />
  <path
    d="M5.26509 42.1687C5.16539 42.2373 5.1467 42.3806 5.22148 42.4803C5.2651 42.5364 5.33364 42.5675 5.40218 42.5675C5.4458 42.5675 5.49565 42.5488 5.53927 42.5239C5.63897 42.4491 5.65767 42.3058 5.58289 42.2124C5.50812 42.1127 5.3648 42.094 5.27133 42.1687H5.26509Z"
    fill="white" />
  <path
    d="M2.03709 36.3242C1.92493 36.374 1.86884 36.5049 1.91869 36.6171C1.94985 36.7043 2.03709 36.7604 2.12433 36.7604C2.14925 36.7604 2.18041 36.7479 2.21156 36.7417C2.32372 36.6981 2.37981 36.561 2.32996 36.4488C2.28634 36.3304 2.15548 36.2806 2.03709 36.3242Z"
    fill="white" />
  <path
    d="M50.1047 38.2744C49.9926 38.2183 49.8555 38.2619 49.8057 38.3741C49.7496 38.4863 49.7932 38.6234 49.9053 38.6732C49.9365 38.6919 49.9739 38.6981 50.005 38.6981C50.0923 38.6981 50.1671 38.6545 50.2045 38.5797C50.2605 38.4676 50.2107 38.3367 50.1047 38.2806V38.2744Z"
    fill="white" />
  <path
    d="M50.9026 17.0566C50.9026 17.0566 50.9587 17.0566 50.9899 17.0379C51.102 16.9943 51.1581 16.8634 51.1083 16.745C51.0647 16.6266 50.9338 16.5768 50.8154 16.6266C50.7032 16.6703 50.6472 16.8011 50.697 16.9195C50.7344 17.0067 50.8154 17.0566 50.9026 17.0566Z"
    fill="white" />
  <path
    d="M51.0087 36.2304C50.8903 36.1868 50.7594 36.2367 50.7158 36.3551C50.6722 36.4735 50.722 36.6043 50.8404 36.6479C50.8653 36.6542 50.8965 36.6666 50.9214 36.6666C51.0087 36.6666 51.0959 36.6105 51.1333 36.5233C51.1769 36.4049 51.1208 36.2741 51.0087 36.2304Z"
    fill="white" />
  <path
    d="M1.26488 19.2487C1.26488 19.2487 1.3085 19.255 1.33342 19.255C1.42689 19.255 1.51413 19.1927 1.55151 19.0992C1.5889 18.9808 1.52035 18.8562 1.40196 18.8188C1.28357 18.7814 1.15894 18.8499 1.12156 18.9746C1.08417 19.093 1.15271 19.2176 1.2711 19.255L1.26488 19.2487Z"
    fill="white" />
  <path
    d="M4.02561 40.3173C3.91968 40.3796 3.88852 40.5167 3.95083 40.6289C3.99445 40.6974 4.06922 40.7348 4.144 40.7348C4.18138 40.7348 4.225 40.7286 4.26239 40.7036C4.36832 40.6351 4.39948 40.498 4.33717 40.3921C4.26862 40.2861 4.13777 40.255 4.02561 40.3235V40.3173Z"
    fill="white" />
  <path
    d="M52.7915 27.5234C52.6669 27.5234 52.5609 27.6107 52.5547 27.7353C52.5547 27.8599 52.6482 27.9659 52.7666 27.9721H52.7728C52.8912 27.9721 52.9909 27.8724 52.9971 27.7602C52.9971 27.6356 52.9099 27.5297 52.7852 27.5297L52.7915 27.5234Z"
    fill="white" />
  <path
    d="M1.30889 34.2174C1.1905 34.2548 1.12818 34.3795 1.15934 34.4978C1.19049 34.5975 1.27774 34.6599 1.37743 34.6599C1.40236 34.6599 1.42105 34.6599 1.44598 34.6474C1.56437 34.61 1.62668 34.4854 1.59553 34.367C1.55814 34.2424 1.42728 34.1863 1.31512 34.2174H1.30889Z"
    fill="white" />
  <path
    d="M26.5011 9.00553V7.21094C15.8146 7.21094 7.12207 15.9035 7.12207 26.59H8.91665C8.91665 16.8942 16.8054 8.9993 26.5074 8.9993L26.5011 9.00553Z"
    fill="white" />
  <path
    d="M26.5014 48.506V46.7114C21.1114 46.7114 16.2136 44.5741 12.5995 41.1095L15.7525 37.9565C18.5566 40.6235 22.3389 42.2685 26.5076 42.2685V41.8199C22.4635 41.8199 18.7933 40.2247 16.0703 37.6387L18.0892 35.6198C20.3013 37.6761 23.2611 38.9411 26.5076 38.9411V38.5485C33.1127 38.5485 38.484 33.1772 38.484 26.5721H38.8765C38.8765 19.7489 33.3245 14.2031 26.5076 14.2031V14.5957C19.9025 14.5957 14.5312 19.967 14.5312 26.5721H14.1386C14.1386 29.8248 15.3973 32.7784 17.4536 34.9905L15.4409 37.0031C12.9048 34.2926 11.347 30.6535 11.347 26.6531H10.8984C10.8984 30.7719 12.506 34.5231 15.1232 37.3209L11.9702 40.4739C8.51807 36.8598 6.39323 31.9683 6.39323 26.5908H4.59863C4.59863 38.6731 14.4253 48.4997 26.5076 48.4997L26.5014 48.506ZM15.0297 26.5783H14.6371C14.6371 20.0355 19.9586 14.7141 26.5014 14.7141V15.1067C32.826 15.1067 37.973 20.2536 37.973 26.5783H38.3656C38.3656 33.1211 33.0441 38.4426 26.5014 38.4426V38.05C23.4979 38.05 20.7624 36.891 18.7186 34.9967L21.5039 32.2113C22.8312 33.4015 24.5821 34.1306 26.5014 34.1306C30.508 34.1306 33.767 30.99 33.9913 27.0394H30.4021C30.1902 29.0085 28.5265 30.5414 26.5014 30.5414C25.5729 30.5414 24.713 30.2111 24.04 29.669L24.3952 29.3138C24.9747 29.7625 25.7038 30.0366 26.5014 30.0366C28.2461 30.0366 29.6917 28.7281 29.9161 27.0394H29.6917C29.4737 28.6035 28.1277 29.8123 26.5076 29.8123C25.7785 29.8123 25.1056 29.5631 24.5634 29.1518L25.4732 28.2421C25.7723 28.4352 26.1275 28.5474 26.5076 28.5474C27.5731 28.5474 28.4393 27.6812 28.4393 26.6157C28.4393 25.5502 27.5731 24.684 26.5076 24.684C25.4421 24.684 24.5759 25.5502 24.5759 26.6157C24.5759 26.9771 24.6818 27.3074 24.8501 27.594L23.9341 28.51C23.6163 28.0863 23.3982 27.5815 23.3234 27.0332H23.0991C23.1801 27.6439 23.4169 28.2047 23.7783 28.672L23.4231 29.0272C22.9807 28.4664 22.6879 27.7809 22.6131 27.0332H19.0239C19.1174 28.7655 19.8028 30.342 20.8808 31.5695L18.0954 34.3549C16.2012 32.3048 15.0421 29.5693 15.0421 26.5721L15.0297 26.5783ZM25.0183 32.3733C25.0183 31.5571 25.6851 30.8903 26.5014 30.8903C27.3176 30.8903 27.9844 31.5571 27.9844 32.3733C27.9844 33.1896 27.3176 33.8564 26.5014 33.8564C25.6851 33.8564 25.0183 33.1896 25.0183 32.3733Z"
    fill="white" />
  <path
    d="M25.6035 50.668C25.6035 50.668 25.6163 50.6935 25.629 50.6935C25.6417 50.6935 25.6545 50.6808 25.6545 50.668C25.6545 50.6553 25.6417 50.6426 25.629 50.6426C25.6163 50.6426 25.6035 50.6553 25.6035 50.668Z"
    fill="white" />
  <path
    d="M24.7316 50.5684C24.7316 50.5684 24.6816 50.5871 24.6816 50.6184C24.6816 50.6496 24.7004 50.6684 24.7316 50.6684C24.7629 50.6684 24.7816 50.6496 24.7816 50.6184C24.7816 50.5871 24.7629 50.5684 24.7316 50.5684Z"
    fill="white" />
  <path
    d="M23.8285 50.4688C23.791 50.4688 23.7598 50.5 23.7598 50.5375C23.7598 50.575 23.791 50.6062 23.8285 50.6062C23.866 50.6062 23.8973 50.575 23.8973 50.5375C23.8973 50.5 23.866 50.4688 23.8285 50.4688Z"
    fill="white" />
  <path
    d="M22.9371 50.332C22.8871 50.332 22.8496 50.3695 22.8496 50.4195C22.8496 50.4695 22.8871 50.507 22.9371 50.507C22.9871 50.507 23.0246 50.4695 23.0246 50.4195C23.0246 50.3695 22.9871 50.332 22.9371 50.332Z"
    fill="white" />
  <path
    d="M21.9404 50.2703C21.9404 50.3266 21.9842 50.3766 22.0467 50.3766C22.1092 50.3766 22.1529 50.3266 22.1529 50.2703C22.1529 50.2141 22.1029 50.1641 22.0467 50.1641C21.9904 50.1641 21.9404 50.2141 21.9404 50.2703Z"
    fill="white" />
  <path
    d="M21.1676 49.9648C21.0988 49.9648 21.0488 50.0211 21.0488 50.0836C21.0488 50.1461 21.1051 50.2023 21.1676 50.2023C21.2301 50.2023 21.2863 50.1461 21.2863 50.0836C21.2863 50.0211 21.2301 49.9648 21.1676 49.9648Z"
    fill="white" />
  <path
    d="M20.2894 49.7324C20.2144 49.7324 20.1582 49.7887 20.1582 49.8637C20.1582 49.9387 20.2144 49.9949 20.2894 49.9949C20.3644 49.9949 20.4207 49.9387 20.4207 49.8637C20.4207 49.7887 20.3644 49.7324 20.2894 49.7324Z"
    fill="white" />
  <path
    d="M19.423 49.4766C19.3418 49.4766 19.2793 49.5391 19.2793 49.6203C19.2793 49.7016 19.3418 49.7641 19.423 49.7641C19.5043 49.7641 19.5668 49.7016 19.5668 49.6203C19.5668 49.5391 19.5043 49.4766 19.423 49.4766Z"
    fill="white" />
  <path
    d="M18.5693 49.1836C18.4818 49.1836 18.4131 49.2523 18.4131 49.3398C18.4131 49.4273 18.4818 49.4961 18.5693 49.4961C18.6568 49.4961 18.7256 49.4273 18.7256 49.3398C18.7256 49.2523 18.6568 49.1836 18.5693 49.1836Z"
    fill="white" />
  <path
    d="M17.721 49.1841C17.8144 49.1841 17.8892 49.1094 17.8892 49.0159C17.8892 48.9224 17.8144 48.8477 17.721 48.8477C17.6275 48.8477 17.5527 48.9224 17.5527 49.0159C17.5527 49.1094 17.6275 49.1841 17.721 49.1841Z"
    fill="white" />
  <path
    d="M16.8864 48.5C16.7867 48.5 16.7119 48.581 16.7119 48.6745C16.7119 48.7679 16.7929 48.8489 16.8864 48.8489C16.9799 48.8489 17.0609 48.7679 17.0609 48.6745C17.0609 48.581 16.9799 48.5 16.8864 48.5Z"
    fill="white" />
  <path
    d="M16.0698 48.1133C15.9638 48.1133 15.8828 48.2005 15.8828 48.3002C15.8828 48.3999 15.9701 48.4872 16.0698 48.4872C16.1695 48.4872 16.2567 48.3999 16.2567 48.3002C16.2567 48.2005 16.1695 48.1133 16.0698 48.1133Z"
    fill="white" />
  <path
    d="M15.2605 47.7012C15.1546 47.7012 15.0674 47.7884 15.0674 47.8943C15.0674 48.0003 15.1546 48.0875 15.2605 48.0875C15.3665 48.0875 15.4537 48.0003 15.4537 47.8943C15.4537 47.7884 15.3665 47.7012 15.2605 47.7012Z"
    fill="white" />
  <path
    d="M14.4748 47.2578C14.3689 47.2578 14.2754 47.345 14.2754 47.4572C14.2754 47.5694 14.3626 47.6566 14.4748 47.6566C14.587 47.6566 14.6742 47.5694 14.6742 47.4572C14.6742 47.345 14.587 47.2578 14.4748 47.2578Z"
    fill="white" />
  <path
    d="M13.7023 47.1918C13.8145 47.1918 13.9017 47.1045 13.9017 46.9924C13.9017 46.8802 13.8145 46.793 13.7023 46.793C13.5902 46.793 13.5029 46.8802 13.5029 46.9924C13.5029 47.1045 13.5902 47.1918 13.7023 47.1918Z"
    fill="white" />
  <path
    d="M12.9488 46.293C12.8366 46.293 12.7432 46.3864 12.7432 46.4986C12.7432 46.6108 12.8366 46.7042 12.9488 46.7042C13.061 46.7042 13.1544 46.6108 13.1544 46.4986C13.1544 46.3864 13.061 46.293 12.9488 46.293Z"
    fill="white" />
  <path
    d="M12.2134 45.7637C12.1013 45.7637 12.0078 45.8571 12.0078 45.9693C12.0078 46.0815 12.1013 46.1749 12.2134 46.1749C12.3256 46.1749 12.4191 46.0815 12.4191 45.9693C12.4191 45.8571 12.3256 45.7637 12.2134 45.7637Z"
    fill="white" />
  <path
    d="M11.7089 45.4267C11.7089 45.3083 11.6154 45.2148 11.497 45.2148C11.3786 45.2148 11.2852 45.3083 11.2852 45.4267C11.2852 45.5451 11.3786 45.6386 11.497 45.6386C11.6154 45.6386 11.7089 45.5451 11.7089 45.4267Z"
    fill="white" />
  <path
    d="M10.805 44.6367C10.6866 44.6367 10.5869 44.7364 10.5869 44.8548C10.5869 44.9732 10.6866 45.0729 10.805 45.0729C10.9234 45.0729 11.0231 44.9732 11.0231 44.8548C11.0231 44.7364 10.9234 44.6367 10.805 44.6367Z"
    fill="white" />
  <path
    d="M10.1322 44.0312C10.0138 44.0312 9.91406 44.1309 9.91406 44.2493C9.91406 44.3677 10.0138 44.4674 10.1322 44.4674C10.2506 44.4674 10.3502 44.3677 10.3502 44.2493C10.3502 44.1309 10.2506 44.0312 10.1322 44.0312Z"
    fill="white" />
  <path
    d="M9.48409 43.4023C9.35947 43.4023 9.25977 43.502 9.25977 43.6267C9.25977 43.7513 9.35947 43.851 9.48409 43.851C9.60871 43.851 9.70841 43.7513 9.70841 43.6267C9.70841 43.502 9.60871 43.4023 9.48409 43.4023Z"
    fill="white" />
  <path
    d="M8.86066 42.7539C8.73604 42.7539 8.64258 42.8536 8.64258 42.972C8.64258 43.0904 8.74227 43.1901 8.86066 43.1901C8.97906 43.1901 9.07876 43.0904 9.07876 42.972C9.07876 42.8536 8.97906 42.7539 8.86066 42.7539Z"
    fill="white" />
  <path
    d="M8.47525 42.306C8.47525 42.1876 8.37554 42.0879 8.25715 42.0879C8.13876 42.0879 8.03906 42.1876 8.03906 42.306C8.03906 42.4244 8.13876 42.5241 8.25715 42.5241C8.37554 42.5241 8.47525 42.4244 8.47525 42.306Z"
    fill="white" />
  <path
    d="M7.68256 41.3945C7.56417 41.3945 7.4707 41.488 7.4707 41.6064C7.4707 41.7248 7.56417 41.8183 7.68256 41.8183C7.80096 41.8183 7.89442 41.7248 7.89442 41.6064C7.89442 41.488 7.80096 41.3945 7.68256 41.3945Z"
    fill="white" />
  <path
    d="M7.13471 40.6836C7.01632 40.6836 6.92285 40.7771 6.92285 40.8892C6.92285 41.0014 7.01632 41.1011 7.13471 41.1011C7.2531 41.1011 7.34034 41.0076 7.34034 40.8892C7.34034 40.7708 7.24687 40.6836 7.13471 40.6836Z"
    fill="white" />
  <path
    d="M6.81751 40.1627C6.81751 40.0505 6.72404 39.957 6.61188 39.957C6.49972 39.957 6.40625 40.0505 6.40625 40.1627C6.40625 40.2748 6.49972 40.3683 6.61188 40.3683C6.72404 40.3683 6.81751 40.2748 6.81751 40.1627Z"
    fill="white" />
  <path
    d="M6.11933 39.207C6.00716 39.207 5.91992 39.2943 5.91992 39.4064C5.91992 39.5186 6.00716 39.6058 6.11933 39.6058C6.23149 39.6058 6.31872 39.5186 6.31872 39.4064C6.31872 39.2943 6.23149 39.207 6.11933 39.207Z"
    fill="white" />
  <path
    d="M5.65155 38.8343C5.76168 38.8343 5.85095 38.7451 5.85095 38.6349C5.85095 38.5248 5.76168 38.4355 5.65155 38.4355C5.54143 38.4355 5.45215 38.5248 5.45215 38.6349C5.45215 38.7451 5.54143 38.8343 5.65155 38.8343Z"
    fill="white" />
  <path
    d="M5.4088 37.8494C5.4088 37.7435 5.32156 37.6562 5.21563 37.6562C5.1097 37.6562 5.02246 37.7435 5.02246 37.8494C5.02246 37.9553 5.1097 38.0426 5.21563 38.0426C5.32156 38.0426 5.4088 37.9553 5.4088 37.8494Z"
    fill="white" />
  <path
    d="M4.80413 36.8594C4.6982 36.8594 4.61719 36.9466 4.61719 37.0463C4.61719 37.146 4.70443 37.2332 4.80413 37.2332C4.90383 37.2332 4.99106 37.146 4.99106 37.0463C4.99106 36.9466 4.90383 36.8594 4.80413 36.8594Z"
    fill="white" />
  <path
    d="M4.4307 36.0488C4.331 36.0488 4.25 36.1298 4.25 36.2295C4.25 36.3292 4.331 36.4102 4.4307 36.4102C4.5304 36.4102 4.61141 36.3292 4.61141 36.2295C4.61141 36.1298 4.5304 36.0488 4.4307 36.0488Z"
    fill="white" />
  <path
    d="M4.08133 35.563C4.17479 35.563 4.24957 35.4883 4.24957 35.3948C4.24957 35.3013 4.17479 35.2266 4.08133 35.2266C3.98786 35.2266 3.91309 35.3013 3.91309 35.3948C3.91309 35.4883 3.98786 35.563 4.08133 35.563Z"
    fill="white" />
  <path
    d="M3.77051 34.3984C3.68301 34.3984 3.61426 34.4672 3.61426 34.5547C3.61426 34.6422 3.68301 34.7109 3.77051 34.7109C3.85801 34.7109 3.92675 34.6422 3.92675 34.5547C3.92675 34.4672 3.85801 34.3984 3.77051 34.3984Z"
    fill="white" />
  <path
    d="M3.48945 33.5508C3.4082 33.5508 3.3457 33.6133 3.3457 33.6945C3.3457 33.7758 3.4082 33.8383 3.48945 33.8383C3.5707 33.8383 3.6332 33.7758 3.6332 33.6945C3.6332 33.6133 3.5707 33.5508 3.48945 33.5508Z"
    fill="white" />
  <path
    d="M3.24062 32.9598C3.31311 32.9598 3.37187 32.901 3.37187 32.8285C3.37187 32.756 3.31311 32.6973 3.24062 32.6973C3.16814 32.6973 3.10938 32.756 3.10938 32.8285C3.10938 32.901 3.16814 32.9598 3.24062 32.9598Z"
    fill="white" />
  <path
    d="M2.9043 31.9547C2.9043 32.0234 2.96055 32.0734 3.02305 32.0734C3.08555 32.0734 3.14179 32.0172 3.14179 31.9547C3.14179 31.8922 3.08555 31.8359 3.02305 31.8359C2.96055 31.8359 2.9043 31.8922 2.9043 31.9547Z"
    fill="white" />
  <path
    d="M2.94199 31.0711C2.94199 31.0148 2.89199 30.9648 2.83574 30.9648C2.77949 30.9648 2.72949 31.0148 2.72949 31.0711C2.72949 31.1273 2.77949 31.1773 2.83574 31.1773C2.89199 31.1773 2.94199 31.1273 2.94199 31.0711Z"
    fill="white" />
  <path
    d="M2.77363 30.1852C2.77363 30.1352 2.73613 30.0977 2.68613 30.0977C2.63613 30.0977 2.59863 30.1352 2.59863 30.1852C2.59863 30.2352 2.63613 30.2727 2.68613 30.2727C2.73613 30.2727 2.77363 30.2352 2.77363 30.1852Z"
    fill="white" />
  <path
    d="M2.63555 29.2875C2.63555 29.25 2.6043 29.2188 2.5668 29.2188C2.5293 29.2188 2.49805 29.25 2.49805 29.2875C2.49805 29.325 2.5293 29.3562 2.5668 29.3562C2.6043 29.3562 2.63555 29.325 2.63555 29.2875Z"
    fill="white" />
  <path
    d="M2.52969 28.3898C2.52969 28.3898 2.51094 28.3398 2.47969 28.3398C2.44844 28.3398 2.42969 28.3586 2.42969 28.3898C2.42969 28.4211 2.44844 28.4398 2.47969 28.4398C2.51094 28.4398 2.52969 28.4211 2.52969 28.3898Z"
    fill="white" />
  <path
    d="M2.4366 27.4609C2.4366 27.4609 2.41113 27.4737 2.41113 27.4864C2.41113 27.4991 2.42387 27.5119 2.4366 27.5119C2.44933 27.5119 2.46207 27.4991 2.46207 27.4864C2.46207 27.4737 2.44933 27.4609 2.4366 27.4609Z"
    fill="white" />
  <path
    d="M26.502 46.1699C37.2944 46.1699 46.0742 37.3901 46.0742 26.5977H44.2796C44.2796 36.3994 36.3037 44.3753 26.502 44.3753V46.1699Z"
    fill="white" />
  <path
    d="M42.2852 11.9531L39.0699 15.1684L37.6492 13.7477L40.8645 10.5324L41.1138 10.2831C37.2317 6.80611 32.1159 4.6875 26.5078 4.6875V6.48209C31.1251 6.48209 35.3748 8.04613 38.7771 10.6695L35.6864 13.7602C35.6303 13.8162 35.5867 13.8785 35.5431 13.9409C32.9945 12.1276 29.8789 11.0496 26.514 11.0496V11.4982C29.7854 11.4982 32.82 12.5451 35.3001 14.3147C34.9013 15.1123 35.0259 16.1031 35.6864 16.7698L36.054 17.1375C36.7395 17.8229 37.7676 17.9351 38.5777 17.4926C40.5156 20.0412 41.6746 23.2191 41.6746 26.6588H42.1232C42.1232 23.1194 40.9393 19.8543 38.9453 17.2372C38.9827 17.206 39.0263 17.1749 39.0637 17.1375L42.1855 14.0156C44.9584 17.4615 46.6222 21.842 46.6222 26.5965H48.4168C48.4168 20.845 46.186 15.6108 42.547 11.6976L42.2852 11.9593V11.9531ZM37.3252 16.2464C36.9015 16.2464 36.5525 15.9037 36.5525 15.4737C36.5525 15.0438 36.8953 14.7011 37.3252 14.7011C37.7552 14.7011 38.0979 15.0438 38.0979 15.4737C38.0979 15.9037 37.7552 16.2464 37.3252 16.2464Z"
    fill="white" />
  <path
    d="M13.1293 26.6587C13.1293 19.281 19.13 13.2865 26.5015 13.2865V12.8379C18.8807 12.8379 12.6807 19.038 12.6807 26.6587H13.1293Z"
    fill="white" />
  <path
    d="M26.502 40.0884V40.5371C34.1539 40.5371 40.3789 34.3121 40.3789 26.6602H39.9302C39.9302 34.0628 33.9046 40.0884 26.502 40.0884Z"
    fill="white" />
  <path
    d="M26.9629 43.6748V43.787C36.2038 43.787 43.7186 36.2721 43.7186 27.0312H43.6065C43.6065 36.2098 36.1415 43.6748 26.9629 43.6748Z"
    fill="white" />
  <path
    d="M26.5508 40.9774V41.0896C34.5267 41.0896 41.0197 34.6029 41.0197 26.627H40.9075C40.9075 34.5406 34.4707 40.9837 26.5508 40.9837V40.9774Z"
    fill="white" />
  <path
    d="M2.4173 27.2252C2.75456 27.2252 3.02796 26.9518 3.02796 26.6146C3.02796 26.2773 2.75456 26.0039 2.4173 26.0039C2.08004 26.0039 1.80664 26.2773 1.80664 26.6146C1.80664 26.9518 2.08004 27.2252 2.4173 27.2252Z"
    fill="white" />
  <path
    d="M26.6136 50.0195C26.2771 50.0195 26.0029 50.2937 26.0029 50.6302C26.0029 50.9667 26.2771 51.2408 26.6136 51.2408C26.9501 51.2408 27.2242 50.9667 27.2242 50.6302C27.2242 50.2937 26.9501 50.0195 26.6136 50.0195Z"
    fill="white" />
  <path
    d="M32.4465 21.1254C32.8702 21.1254 33.2192 20.7827 33.2192 20.3527C33.2192 19.9228 32.8765 19.5801 32.4465 19.5801C32.0165 19.5801 31.6738 19.9228 31.6738 20.3527C31.6738 20.7827 32.0165 21.1254 32.4465 21.1254Z"
    fill="white" />
  <path d="M27.7667 46.7363H27.2246V48.4437H27.7667V46.7363Z" fill="white" />
  <path d="M29.5283 46.5426L28.9883 46.5898L29.1371 48.2907L29.6771 48.2435L29.5283 46.5426Z" fill="white" />
  <path d="M31.2448 46.2106L30.7109 46.3047L31.0074 47.9861L31.5413 47.892L31.2448 46.2106Z" fill="white" />
  <path d="M32.9406 45.7269L32.417 45.8672L32.8589 47.5164L33.3825 47.3761L32.9406 45.7269Z" fill="white" />
  <path d="M34.5856 45.0939L34.0762 45.2793L34.6601 46.8837L35.1695 46.6983L34.5856 45.0939Z" fill="white" />
  <path d="M36.1671 44.31L35.6758 44.5391L36.3973 46.0865L36.8887 45.8573L36.1671 44.31Z" fill="white" />
  <path d="M37.6746 43.4106L37.2051 43.6816L38.0588 45.1603L38.5282 44.8892L37.6746 43.4106Z" fill="white" />
  <path d="M39.0984 42.357L38.6543 42.668L39.6336 44.0666L40.0777 43.7556L39.0984 42.357Z" fill="white" />
  <path d="M40.425 41.2179L40.0098 41.5664L41.1072 42.8743L41.5225 42.5259L40.425 41.2179Z" fill="white" />
  <path d="M41.6451 39.9409L41.2617 40.3242L42.469 41.5315L42.8523 41.1482L41.6451 39.9409Z" fill="white" />
  <path d="M42.7508 38.5652L42.4023 38.9805L43.7103 40.0779L44.0587 39.6626L42.7508 38.5652Z" fill="white" />
  <path d="M43.7426 37.1165L43.4316 37.5605L44.8302 38.5398L45.1412 38.0958L43.7426 37.1165Z" fill="white" />
  <path d="M44.5865 35.5657L44.3154 36.0352L45.794 36.8888L46.0651 36.4193L44.5865 35.5657Z" fill="white" />
  <path d="M45.2965 33.9559L45.0674 34.4473L46.6148 35.1688L46.8439 34.6775L45.2965 33.9559Z" fill="white" />
  <path d="M45.8841 32.2993L45.6982 32.8086L47.3021 33.3939L47.488 32.8847L45.8841 32.2993Z" fill="white" />
  <path d="M46.2828 30.574L46.1426 31.0977L47.7918 31.5393L47.9321 31.0156L46.2828 30.574Z" fill="white" />
  <path d="M46.5629 28.8392L46.4688 29.373L48.1502 29.6695L48.2443 29.1356L46.5629 28.8392Z" fill="white" />
  <path d="M46.6957 27.085L46.6484 27.625L48.3493 27.7738L48.3965 27.2338L46.6957 27.085Z" fill="white" />
</svg>