<svg width="385" height="223" viewBox="0 0 385 223" fill="none" xmlns="http://www.w3.org/2000/svg">
<path d="M384.745 47.314L345.539 0.382249C345.338 0.138034 345.041 0 344.722 0H254.506V2.12361H344.235L382.879 48.3864V189.436L355.253 220.898H3.40232L30.0632 190.541C30.2328 190.35 30.3283 190.095 30.3283 189.84V86.2291C30.3283 85.9849 30.2435 85.7407 30.0844 85.5601L4.18714 54.0033V2.12361L154.5 2.12361V-5.06308e-07L3.12665 0C2.54338 0 2.06616 0.477812 2.06616 1.0618V54.3644C2.06616 54.6086 2.15097 54.8528 2.31005 55.0333L28.2073 86.5901V189.415L0.263302 221.237C-0.0124261 221.545 -0.076092 221.991 0.093587 222.374C0.263266 222.756 0.64508 223 1.05867 223H355.73C356.038 223 356.324 222.873 356.526 222.639L384.735 190.519C384.905 190.328 385 190.073 385 189.819V47.9935C385 47.7493 384.915 47.5051 384.756 47.314H384.745Z" fill="white"/>
</svg>
