<svg width="387" height="222" viewBox="0 0 387 222" fill="none" xmlns="http://www.w3.org/2000/svg">
<path d="M147.394 0C147.088 0 146.781 0.137402 146.581 0.380499L136.116 12.8313H117.257L105.019 0.317082C104.818 0.116264 104.543 0 104.269 0H46.0436C45.4628 0 44.9877 0.475624 44.9877 1.05694V53.513C44.9877 54.0943 45.4628 54.5699 46.0436 54.5699H63.4774V162.843H46.0436C45.7163 162.843 45.4101 162.991 45.2094 163.245L0.225865 220.288C-0.0275632 220.605 -0.0698181 221.038 0.109694 221.408C0.289206 221.778 0.658815 222 1.06008 222H357.856C358.162 222 358.447 221.873 358.648 221.641L386.736 189.668C386.905 189.478 387 189.224 387 188.971V85.8342C387 85.5911 386.916 85.348 386.757 85.1578L360.633 53.7455V1.05694C360.633 0.475624 360.158 0 359.577 0H147.394Z" fill="white" fill-opacity="0.1"/>
</svg>
