<svg width="384" height="222" viewBox="0 0 384 222" fill="none" xmlns="http://www.w3.org/2000/svg">
  <path
    d="M164.424 0H3.11853C2.53677 0 2.06079 0.475669 2.06079 1.05704V54.1206C2.06079 54.3637 2.14539 54.6068 2.30405 54.7865L28.134 86.2018V188.566L0.262618 220.245C-0.0123939 220.552 -0.0758944 220.996 0.0933439 221.376C0.262582 221.757 0.643405 222 1.05592 222H354.806C355.113 222 355.399 221.873 355.6 221.641L383.736 189.665C383.905 189.475 384 189.221 384 188.967V47.7783C384 47.5352 383.915 47.2921 383.757 47.1018L344.652 0.380535C344.451 0.137415 344.155 0 343.838 0H164.424Z"
    fill="white" fill-opacity="0.1" />
</svg>