<svg width="374" height="222" viewBox="0 0 374 222" fill="none" xmlns="http://www.w3.org/2000/svg">
<path d="M1.05629 0C0.47533 0 0 0.475646 0 1.05699V188.969C0 189.223 0.095066 189.476 0.264072 189.667L28.3613 221.641C28.562 221.873 28.8472 222 29.1536 222H309.028C309.355 222 309.661 221.852 309.862 221.598L354.258 164.774H372.944C373.525 164.774 374 164.299 374 163.717V53.3252C374 52.7439 373.525 52.2682 372.944 52.2682H354.797V1.05699C354.797 0.475646 354.321 0 353.74 0H295.497C295.211 0 294.937 0.116269 294.747 0.317098L282.504 12.8319H263.639L253.171 0.380517C252.97 0.137409 252.675 0 252.358 0H1.05629Z" fill="white" fill-opacity="0.1"/>
</svg>
